<svg xmlns="http://www.w3.org/2000/svg" viewBox="0 0 164 32" role="img" aria-label="Orchestr"><defs><linearGradient id="or-g" x1="4" y1="6" x2="30" y2="26" gradientUnits="userSpaceOnUse"><stop offset="0" stop-color="#B6F7DD"/><stop offset="0.55" stop-color="#3DE0A0"/><stop offset="1" stop-color="#7C8BFF"/></linearGradient></defs><g fill="none" stroke="url(#or-g)" stroke-width="3.4" stroke-linecap="round"><path d="M18.29 5.24A11 11 0 0 1 26.94 17.15"/><path d="M24.17 23.36A11 11 0 0 1 9.53 24.90"/><path d="M5.54 19.40A11 11 0 0 1 11.53 5.95"/></g><circle cx="16" cy="16" r="3.4" fill="#3DE0A0"/><path transform="translate(41.00 23.75)" fill="#F2F5F4" d="M9.54 0.27Q7.56 0.27 5.99 -0.28Q4.41 -0.84 3.24 -1.9Q2.07 -2.97 1.47 -4.51Q0.87 -6.06 0.87 -7.98Q0.87 -10.5 1.93 -12.34Q3 -14.19 4.93 -15.22Q6.87 -16.26 9.54 -16.26Q11.46 -16.26 13.05 -15.69Q14.64 -15.12 15.76 -14.04Q16.89 -12.96 17.52 -11.44Q18.15 -9.93 18.15 -7.98Q18.15 -5.49 17.09 -3.63Q16.02 -1.77 14.1 -0.75Q12.18 0.27 9.54 0.27ZM9.51 -2.94Q10.95 -2.94 11.99 -3.52Q13.02 -4.11 13.58 -5.25Q14.13 -6.39 14.13 -7.98Q14.13 -9.18 13.82 -10.12Q13.5 -11.07 12.9 -11.73Q12.3 -12.39 11.45 -12.72Q10.59 -13.05 9.54 -13.05Q8.13 -13.05 7.07 -12.46Q6 -11.88 5.44 -10.74Q4.89 -9.6 4.89 -7.98Q4.89 -6.78 5.21 -5.83Q5.52 -4.89 6.12 -4.24Q6.72 -3.6 7.59 -3.27Q8.46 -2.94 9.51 -2.94Z M19.92 0L19.92 -15.96L23.55 -15.96L23.73 -13.29L23.85 -13.29Q24.39 -14.73 25.57 -15.45Q26.76 -16.17 28.38 -16.17Q28.71 -16.17 28.99 -16.17Q29.28 -16.17 29.49 -16.14L29.49 -12.45Q29.28 -12.48 28.95 -12.51Q28.62 -12.54 28.29 -12.54Q26.94 -12.54 25.98 -12.07Q25.02 -11.61 24.49 -10.71Q23.97 -9.81 23.91 -8.43L23.91 0Z M37.99 0.27Q36.04 0.27 34.48 -0.31Q32.92 -0.9 31.79 -1.99Q30.67 -3.09 30.08 -4.62Q29.5 -6.15 29.5 -8.01Q29.5 -9.87 30.11 -11.4Q30.73 -12.93 31.87 -14.02Q33.01 -15.12 34.6 -15.69Q36.19 -16.26 38.14 -16.26Q40.39 -16.26 42.11 -15.52Q43.84 -14.79 44.87 -13.45Q45.91 -12.12 46.03 -10.35L42.1 -10.35Q41.89 -11.25 41.33 -11.85Q40.78 -12.45 39.94 -12.76Q39.1 -13.08 38.11 -13.08Q37 -13.08 36.16 -12.7Q35.32 -12.33 34.73 -11.65Q34.15 -10.98 33.82 -10.05Q33.49 -9.12 33.49 -8.01Q33.49 -6.33 34.06 -5.19Q34.63 -4.05 35.66 -3.48Q36.7 -2.91 38.08 -2.91Q39.16 -2.91 40.01 -3.27Q40.87 -3.63 41.44 -4.26Q42.01 -4.89 42.19 -5.76L46.12 -5.76Q45.97 -3.93 44.86 -2.58Q43.75 -1.23 41.96 -0.48Q40.18 0.27 37.99 0.27Z M47.74 0L47.74 -21.87L51.73 -21.87L51.73 -12.93L51.94 -12.93Q52.72 -14.55 54.25 -15.4Q55.78 -16.26 57.64 -16.26Q58.99 -16.26 60.15 -15.88Q61.3 -15.51 62.14 -14.67Q62.98 -13.83 63.46 -12.48Q63.94 -11.13 63.94 -9.18L63.94 0L59.95 0L59.95 -8.4Q59.95 -9.96 59.55 -11.01Q59.14 -12.06 58.33 -12.57Q57.52 -13.08 56.2 -13.08Q54.82 -13.08 53.83 -12.46Q52.84 -11.85 52.29 -10.78Q51.73 -9.72 51.73 -8.37L51.73 0Z M74.09 0.3Q71.48 0.3 69.57 -0.7Q67.67 -1.71 66.66 -3.57Q65.66 -5.43 65.66 -7.89Q65.66 -10.5 66.69 -12.34Q67.73 -14.19 69.59 -15.21Q71.45 -16.23 74.03 -16.23Q76.94 -16.23 78.81 -15.09Q80.69 -13.95 81.57 -11.89Q82.46 -9.84 82.22 -7.14L69.71 -7.14Q69.74 -5.67 70.29 -4.66Q70.85 -3.66 71.85 -3.16Q72.86 -2.67 74.21 -2.67Q75.8 -2.67 76.85 -3.28Q77.9 -3.9 78.2 -4.86L82.1 -4.86Q81.83 -3.3 80.7 -2.13Q79.58 -0.96 77.9 -0.33Q76.22 0.3 74.09 0.3ZM69.68 -9.21L69.38 -9.57L78.56 -9.57L78.26 -9.18Q78.29 -10.59 77.76 -11.52Q77.24 -12.45 76.28 -12.91Q75.32 -13.38 74.06 -13.38Q72.74 -13.38 71.79 -12.87Q70.85 -12.36 70.28 -11.44Q69.71 -10.53 69.68 -9.21Z M90.83 0.3Q89.03 0.3 87.64 -0.06Q86.24 -0.42 85.28 -1.11Q84.32 -1.8 83.78 -2.77Q83.24 -3.75 83.21 -4.95L87.14 -4.95Q87.2 -4.08 87.68 -3.51Q88.16 -2.94 88.97 -2.65Q89.78 -2.37 90.92 -2.37Q92.54 -2.37 93.43 -2.88Q94.31 -3.39 94.31 -4.38Q94.31 -5.16 93.95 -5.58Q93.59 -6 92.75 -6.21Q91.91 -6.42 90.5 -6.57Q88.1 -6.84 86.6 -7.36Q85.1 -7.89 84.4 -8.8Q83.69 -9.72 83.69 -11.28Q83.69 -12.81 84.58 -13.92Q85.46 -15.03 87.07 -15.64Q88.67 -16.26 90.89 -16.26Q92.99 -16.26 94.52 -15.67Q96.05 -15.09 96.94 -13.96Q97.82 -12.84 97.91 -11.28L94.04 -11.28Q94.01 -12.12 93.58 -12.61Q93.14 -13.11 92.44 -13.36Q91.73 -13.62 90.8 -13.62Q89.39 -13.62 88.51 -13.11Q87.62 -12.6 87.62 -11.61Q87.62 -10.98 88.03 -10.57Q88.43 -10.17 89.33 -9.93Q90.23 -9.69 91.64 -9.54Q93.98 -9.3 95.44 -8.79Q96.89 -8.28 97.6 -7.32Q98.3 -6.36 98.3 -4.68Q98.3 -3.15 97.43 -2.02Q96.56 -0.9 94.9 -0.3Q93.23 0.3 90.83 0.3Z M105.59 0Q103.64 0 102.66 -0.96Q101.69 -1.92 101.69 -3.9L101.69 -12.84L98.66 -12.84L98.66 -15.96L101.69 -15.96L101.69 -20.34L105.65 -20.94L105.65 -15.96L109.34 -15.96L109.34 -12.84L105.65 -12.84L105.65 -4.83Q105.65 -3.99 106.02 -3.67Q106.4 -3.36 107.15 -3.36L109.37 -3.36L109.37 0Z M111.15 0L111.15 -15.96L114.78 -15.96L114.96 -13.29L115.08 -13.29Q115.62 -14.73 116.8 -15.45Q117.99 -16.17 119.61 -16.17Q119.94 -16.17 120.22 -16.17Q120.51 -16.17 120.72 -16.14L120.72 -12.45Q120.51 -12.48 120.18 -12.51Q119.85 -12.54 119.52 -12.54Q118.17 -12.54 117.21 -12.07Q116.25 -11.61 115.72 -10.71Q115.2 -9.81 115.14 -8.43L115.14 0Z"/></svg>
